<svg width="20" height="20" viewBox="0 0 20 20" fill="none" xmlns="http://www.w3.org/2000/svg">
<path d="M17.0167 3.81574C16.5987 3.39622 16.1019 3.06335 15.5549 2.83623C15.0079 2.6091 14.4215 2.49219 13.8292 2.49219C13.237 2.49219 12.6505 2.6091 12.1036 2.83623C11.5566 3.06335 11.0598 3.39622 10.6417 3.81574L10.0001 4.46574L9.35841 3.81574C8.94034 3.39622 8.44357 3.06335 7.89659 2.83623C7.34961 2.6091 6.76317 2.49219 6.17091 2.49219C5.57864 2.49219 4.9922 2.6091 4.44522 2.83623C3.89824 3.06335 3.40147 3.39622 2.98341 3.81574C1.21674 5.5824 1.10841 8.56574 3.33341 10.8324L10.0001 17.4991L16.6667 10.8324C18.8917 8.56574 18.7834 5.5824 17.0167 3.81574Z" stroke="#B5BBC5" stroke-width="1.5" stroke-linecap="round" stroke-linejoin="round"/>
</svg>
