<svg width="20" height="20" viewBox="0 0 20 20" fill="none" xmlns="http://www.w3.org/2000/svg">
<path fill-rule="evenodd" clip-rule="evenodd" d="M16.7761 2.63431C16.3073 2.16563 15.6715 1.90234 15.0086 1.90234C14.3457 1.90234 13.7099 2.16563 13.2411 2.63431L12.6519 3.22431L16.7769 7.34931L17.3653 6.76014C17.5975 6.52799 17.7816 6.25237 17.9073 5.94903C18.033 5.64569 18.0976 5.32057 18.0976 4.99223C18.0976 4.66389 18.033 4.33876 17.9073 4.03542C17.7816 3.73208 17.5975 3.45646 17.3653 3.22431L16.7761 2.63431ZM15.5978 8.52764L11.4728 4.40264L3.89777 11.9785C3.732 12.1443 3.6162 12.3533 3.5636 12.5818L2.7061 16.2943C2.67415 16.4321 2.67781 16.5758 2.71675 16.7118C2.75568 16.8479 2.82861 16.9717 2.92865 17.0718C3.02869 17.1718 3.15255 17.2447 3.28857 17.2837C3.42459 17.3226 3.56827 17.3263 3.7061 17.2943L7.41943 16.4376C7.6476 16.3849 7.85637 16.2691 8.02193 16.1035L15.5978 8.52764Z" fill="white"/>
</svg>
