<svg width="26" height="26" viewBox="0 0 26 26" fill="none" xmlns="http://www.w3.org/2000/svg">
<path d="M13.0002 14.846C15.5492 14.846 17.6155 12.7796 17.6155 10.2306C17.6155 7.68161 15.5492 5.61523 13.0002 5.61523C10.4511 5.61523 8.38477 7.68161 8.38477 10.2306C8.38477 12.7796 10.4511 14.846 13.0002 14.846Z" stroke="#00BC7D" stroke-width="2" stroke-linecap="round" stroke-linejoin="round"/>
<path d="M5.11523 22.0464C5.93907 20.6941 7.09691 19.5765 8.47746 18.801C9.85802 18.0255 11.4149 17.6182 12.9983 17.6182C14.5818 17.6182 16.1386 18.0255 17.5192 18.801C18.8997 19.5765 20.0576 20.6941 20.8814 22.0464" stroke="#00BC7D" stroke-width="2" stroke-linecap="round" stroke-linejoin="round"/>
<path d="M13 25C19.6274 25 25 19.6274 25 13C25 6.37258 19.6274 1 13 1C6.37258 1 1 6.37258 1 13C1 19.6274 6.37258 25 13 25Z" stroke="#00BC7D" stroke-width="2" stroke-linecap="round" stroke-linejoin="round"/>
</svg>
