<svg width="35" height="27" viewBox="0 0 35 27" fill="none" xmlns="http://www.w3.org/2000/svg">
<path d="M18.75 26.25V18.75H23.75L17.5 11.25L11.25 18.75H16.25V26.25H10V26.1875C9.78906 26.1992 9.58984 26.25 9.375 26.25C6.8886 26.25 4.50403 25.2623 2.74587 23.5041C0.98772 21.746 0 19.3614 0 16.875C0.00324092 14.5798 0.85186 12.3662 2.38377 10.657C3.91568 8.94786 6.02352 7.8629 8.30469 7.60937C8.71487 5.47036 9.85702 3.5409 11.535 2.15234C13.2129 0.763779 15.322 0.00277038 17.5 0C19.6787 0.00186327 21.7887 0.762459 23.4674 2.1511C25.1462 3.53973 26.2889 5.4697 26.6992 7.60937C28.979 7.86469 31.0849 8.95043 32.6152 10.6594C34.1455 12.3684 34.9931 14.581 34.9961 16.875C34.9961 19.3614 34.0084 21.746 32.2502 23.5041C30.4921 25.2623 28.1075 26.25 25.6211 26.25C25.4141 26.25 25.2109 26.1992 24.9961 26.1875V26.25H18.75Z" fill="#B5BBC5"/>
</svg>
