<svg width="24" height="24" viewBox="0 0 24 24" fill="none" xmlns="http://www.w3.org/2000/svg">
<path d="M5.25 11.25H20.25C20.4489 11.25 20.6397 11.329 20.7803 11.4697C20.921 11.6103 21 11.8011 21 12C21 12.1989 20.921 12.3897 20.7803 12.5303C20.6397 12.671 20.4489 12.75 20.25 12.75H5.25C5.05109 12.75 4.86032 12.671 4.71967 12.5303C4.57902 12.3897 4.5 12.1989 4.5 12C4.5 11.8011 4.57902 11.6103 4.71967 11.4697C4.86032 11.329 5.05109 11.25 5.25 11.25Z" fill="black"/>
<path d="M5.55936 12.0005L11.782 18.2184C11.8519 18.2883 11.9073 18.3712 11.9451 18.4625C11.9829 18.5538 12.0024 18.6516 12.0024 18.7505C12.0024 18.8493 11.9829 18.9471 11.9451 19.0384C11.9073 19.1297 11.8519 19.2126 11.782 19.2825C11.7122 19.3524 11.6292 19.4078 11.5379 19.4456C11.4466 19.4834 11.3488 19.5029 11.25 19.5029C11.1512 19.5029 11.0533 19.4834 10.9621 19.4456C10.8708 19.4078 10.7878 19.3524 10.718 19.2825L3.96796 12.5325C3.8978 12.4628 3.84213 12.3799 3.80413 12.2886C3.76614 12.1973 3.74658 12.0993 3.74658 12.0005C3.74658 11.9016 3.76614 11.8036 3.80413 11.7123C3.84213 11.621 3.8978 11.5381 3.96796 11.4684L10.718 4.71842C10.7878 4.64855 10.8708 4.59313 10.9621 4.55532C11.0533 4.51751 11.1512 4.49805 11.25 4.49805C11.3488 4.49805 11.4466 4.51751 11.5379 4.55532C11.6292 4.59313 11.7122 4.64855 11.782 4.71842C11.8519 4.78829 11.9073 4.87123 11.9451 4.96252C11.9829 5.05381 12.0024 5.15165 12.0024 5.25045C12.0024 5.34926 11.9829 5.4471 11.9451 5.53839C11.9073 5.62967 11.8519 5.71262 11.782 5.78248L5.55936 12.0005Z" fill="black"/>
</svg>
